<svg width="267" height="43" viewBox="0 0 267 43" fill="none" xmlns="http://www.w3.org/2000/svg">
<rect width="267" height="43" fill="url(#paint0_linear)"/>
<rect x="3" y="3" width="125" height="37" fill="white"/>
<rect x="131" y="3" width="133" height="37" fill="white"/>
<path d="M141 30V12.25H148.45C149.25 12.25 149.983 12.4167 150.65 12.75C151.333 13.0833 151.917 13.525 152.4 14.075C152.9 14.625 153.283 15.2417 153.55 15.925C153.817 16.6083 153.95 17.3083 153.95 18.025C153.95 19.025 153.725 19.9667 153.275 20.85C152.825 21.7333 152.2 22.45 151.4 23C150.6 23.55 149.667 23.825 148.6 23.825H143.8V30H141ZM143.8 21.35H148.425C149.208 21.35 149.85 21.0333 150.35 20.4C150.85 19.7667 151.1 18.975 151.1 18.025C151.1 17.375 150.967 16.8083 150.7 16.325C150.433 15.825 150.083 15.4333 149.65 15.15C149.233 14.8667 148.775 14.725 148.275 14.725H143.8V21.35ZM156.576 30V12.25H159.376V27.525H168.901V30H156.576ZM176.301 12.25H178.951L185.851 30H182.901L181.026 25.175H174.176L172.326 30H169.351L176.301 12.25ZM180.476 23.1L177.626 15.325L174.676 23.1H180.476ZM190.846 17.45V30H188.046V12.25H190.346L200.396 25.075V12.275H203.221V30H200.771L190.846 17.45ZM210.011 17.45V30H207.211V12.25H209.511L219.561 25.075V12.275H222.386V30H219.936L210.011 17.45ZM238.551 27.525V30H226.376V12.25H238.326V14.725H229.176V19.775H237.101V22.1H229.176V27.525H238.551ZM241.439 30V12.25H249.164C249.964 12.25 250.698 12.4167 251.364 12.75C252.031 13.0833 252.606 13.525 253.089 14.075C253.589 14.625 253.973 15.2417 254.239 15.925C254.523 16.6083 254.664 17.3083 254.664 18.025C254.664 18.825 254.514 19.5833 254.214 20.3C253.931 21 253.531 21.6083 253.014 22.125C252.498 22.6417 251.889 23.0167 251.189 23.25L255.364 30H252.214L248.364 23.825H244.239V30H241.439ZM244.239 21.35H249.139C249.656 21.35 250.114 21.2 250.514 20.9C250.914 20.5833 251.231 20.175 251.464 19.675C251.698 19.175 251.814 18.625 251.814 18.025C251.814 17.4083 251.681 16.8583 251.414 16.375C251.148 15.875 250.798 15.475 250.364 15.175C249.931 14.875 249.473 14.725 248.989 14.725H244.239V21.35Z" fill="url(#paint1_linear)"/>
<path d="M12 30V12.25H19.45C20.25 12.25 20.9833 12.4167 21.65 12.75C22.3333 13.0833 22.9167 13.525 23.4 14.075C23.9 14.625 24.2833 15.2417 24.55 15.925C24.8167 16.6083 24.95 17.3083 24.95 18.025C24.95 19.025 24.725 19.9667 24.275 20.85C23.825 21.7333 23.2 22.45 22.4 23C21.6 23.55 20.6667 23.825 19.6 23.825H14.8V30H12ZM14.8 21.35H19.425C20.2083 21.35 20.85 21.0333 21.35 20.4C21.85 19.7667 22.1 18.975 22.1 18.025C22.1 17.375 21.9667 16.8083 21.7 16.325C21.4333 15.825 21.0833 15.4333 20.65 15.15C20.2333 14.8667 19.775 14.725 19.275 14.725H14.8V21.35ZM27.5762 30V12.25H35.3012C36.1012 12.25 36.8345 12.4167 37.5012 12.75C38.1678 13.0833 38.7428 13.525 39.2262 14.075C39.7262 14.625 40.1095 15.2417 40.3762 15.925C40.6595 16.6083 40.8012 17.3083 40.8012 18.025C40.8012 18.825 40.6512 19.5833 40.3512 20.3C40.0678 21 39.6678 21.6083 39.1512 22.125C38.6345 22.6417 38.0262 23.0167 37.3262 23.25L41.5012 30H38.3512L34.5012 23.825H30.3762V30H27.5762ZM30.3762 21.35H35.2762C35.7928 21.35 36.2512 21.2 36.6512 20.9C37.0512 20.5833 37.3678 20.175 37.6012 19.675C37.8345 19.175 37.9512 18.625 37.9512 18.025C37.9512 17.4083 37.8178 16.8583 37.5512 16.375C37.2845 15.875 36.9345 15.475 36.5012 15.175C36.0678 14.875 35.6095 14.725 35.1262 14.725H30.3762V21.35ZM51.4307 30.125C50.164 30.125 49.0057 29.875 47.9557 29.375C46.9223 28.875 46.0307 28.2 45.2807 27.35C44.5307 26.4833 43.9473 25.5167 43.5307 24.45C43.1307 23.3667 42.9307 22.2583 42.9307 21.125C42.9307 19.9417 43.1473 18.8167 43.5807 17.75C44.014 16.6667 44.614 15.7083 45.3807 14.875C46.1473 14.025 47.0473 13.3583 48.0807 12.875C49.1307 12.375 50.264 12.125 51.4807 12.125C52.7473 12.125 53.8973 12.3833 54.9307 12.9C55.9807 13.4167 56.8723 14.1083 57.6057 14.975C58.3557 15.8417 58.9307 16.8083 59.3307 17.875C59.7473 18.9417 59.9557 20.0333 59.9557 21.15C59.9557 22.3333 59.739 23.4667 59.3057 24.55C58.889 25.6167 58.2973 26.575 57.5307 27.425C56.764 28.2583 55.8557 28.9167 54.8057 29.4C53.7723 29.8833 52.6473 30.125 51.4307 30.125ZM45.7807 21.125C45.7807 22.2417 46.014 23.3 46.4807 24.3C46.9473 25.2833 47.5973 26.0833 48.4307 26.7C49.2807 27.3 50.289 27.6 51.4557 27.6C52.339 27.6 53.1307 27.4167 53.8307 27.05C54.5307 26.6833 55.1223 26.1917 55.6057 25.575C56.089 24.9417 56.4557 24.2417 56.7057 23.475C56.9557 22.7083 57.0807 21.925 57.0807 21.125C57.0807 20.0083 56.8473 18.9583 56.3807 17.975C55.9307 16.9917 55.2807 16.2 54.4307 15.6C53.5807 14.9833 52.589 14.675 51.4557 14.675C50.5557 14.675 49.7557 14.8583 49.0557 15.225C48.3557 15.5917 47.764 16.0833 47.2807 16.7C46.7973 17.3167 46.4223 18.0083 46.1557 18.775C45.9057 19.5417 45.7807 20.325 45.7807 21.125ZM61.1936 26.875C61.4602 27.0583 61.8686 27.25 62.4186 27.45C62.9686 27.65 63.6186 27.75 64.3686 27.75C65.3519 27.75 66.0936 27.5417 66.5936 27.125C67.0936 26.6917 67.4269 26.025 67.5936 25.125C67.7602 24.225 67.8436 23.075 67.8436 21.675V12.25H70.6686V21.275C70.6686 22.6083 70.5936 23.825 70.4436 24.925C70.3102 26.025 70.0352 26.975 69.6186 27.775C69.2019 28.575 68.5769 29.1917 67.7436 29.625C66.9269 30.0583 65.8269 30.275 64.4436 30.275C63.6102 30.275 62.8769 30.1833 62.2436 30C61.6102 29.8167 61.0352 29.5417 60.5186 29.175L61.1936 26.875ZM86.6506 27.525V30H74.4756V12.25H86.4256V14.725H77.2756V19.775H85.2006V22.1H77.2756V27.525H86.6506ZM88.0967 21C88.0967 19.9167 88.2883 18.85 88.6717 17.8C89.055 16.75 89.6133 15.8 90.3467 14.95C91.0967 14.1 91.9967 13.425 93.0467 12.925C94.1133 12.4083 95.33 12.15 96.6967 12.15C98.2967 12.15 99.68 12.5083 100.847 13.225C102.013 13.9417 102.88 14.875 103.447 16.025L101.247 17.5C100.913 16.7833 100.488 16.225 99.9717 15.825C99.4717 15.4083 98.9217 15.1167 98.3217 14.95C97.7383 14.7667 97.1633 14.675 96.5967 14.675C95.6633 14.675 94.8467 14.8667 94.1467 15.25C93.4467 15.6167 92.855 16.1083 92.3717 16.725C91.905 17.3417 91.5467 18.0333 91.2967 18.8C91.0633 19.5667 90.9467 20.3333 90.9467 21.1C90.9467 22.25 91.1883 23.325 91.6717 24.325C92.1717 25.3083 92.8467 26.1083 93.6967 26.725C94.5633 27.325 95.555 27.625 96.6717 27.625C97.2383 27.625 97.83 27.525 98.4467 27.325C99.0633 27.125 99.63 26.8167 100.147 26.4C100.663 25.9667 101.08 25.4 101.397 24.7L103.722 26.025C103.355 26.9083 102.78 27.6583 101.997 28.275C101.23 28.8917 100.363 29.3583 99.3967 29.675C98.4467 29.9917 97.505 30.15 96.5717 30.15C95.3217 30.15 94.18 29.8917 93.1467 29.375C92.1133 28.8417 91.2217 28.1417 90.4717 27.275C89.7217 26.3917 89.1383 25.4083 88.7217 24.325C88.305 23.225 88.0967 22.1167 88.0967 21ZM119.337 14.725H113.437V30H110.612V14.725H104.687V12.25H119.337V14.725Z" fill="url(#paint2_linear)"/>
<defs>
<linearGradient id="paint0_linear" x1="40.9987" y1="21.5" x2="239.339" y2="58.6304" gradientUnits="userSpaceOnUse">
<stop stop-color="#0F2027"/>
<stop offset="0.494792" stop-color="#203A43"/>
<stop offset="1" stop-color="#2C5364"/>
</linearGradient>
<linearGradient id="paint1_linear" x1="156.966" y1="21.5" x2="245.613" y2="32.2828" gradientUnits="userSpaceOnUse">
<stop stop-color="#0F2027"/>
<stop offset="0.494792" stop-color="#203A43"/>
<stop offset="1" stop-color="#2C5364"/>
</linearGradient>
<linearGradient id="paint2_linear" x1="26.8909" y1="21.5" x2="110.376" y2="31.0473" gradientUnits="userSpaceOnUse">
<stop stop-color="#0F2027"/>
<stop offset="0.494792" stop-color="#203A43"/>
<stop offset="1" stop-color="#2C5364"/>
</linearGradient>
</defs>
</svg>
