<svg width="165" height="46" viewBox="0 0 165 46" fill="none" xmlns="http://www.w3.org/2000/svg">
<path d="M22.6342 44.2852C22.4324 44.37 22.2282 44.4518 22.0217 44.5306C20.7485 45.0161 19.3843 45.2589 17.9292 45.2589C16.2402 45.2589 14.4603 44.8117 12.5894 43.9172C10.7445 43.0483 9.00358 41.7195 7.36658 39.9306L8.22406 37.4006C8.53587 37.4517 8.83469 37.49 9.12051 37.5156C9.43232 37.5667 9.73114 37.5922 10.017 37.5922C11.3162 37.5922 12.5374 37.2983 13.6807 36.7106C14.8241 36.1228 15.8115 35.2667 16.643 34.1422C17.5004 33.0178 18.176 31.6378 18.6697 30.0022C19.1634 28.3411 19.4103 26.45 19.4103 24.3289C19.4103 23.0256 19.3193 21.7734 19.1374 20.5722C18.9555 19.3711 18.6178 18.3106 18.1241 17.3906C17.6563 16.445 16.9937 15.6911 16.1363 15.1289C15.3048 14.5667 14.2134 14.2856 12.8622 14.2856C11.7189 14.2856 10.7445 14.5539 9.93902 15.0906C9.15949 15.6017 8.50988 16.3045 7.9902 17.1989C7.4965 18.0678 7.13272 19.0772 6.89886 20.2272C6.665 21.3772 6.54807 22.5911 6.54807 23.8689C6.54807 26.22 6.8339 28.0728 7.40555 29.4272C8.00319 30.7561 9.1465 31.6122 10.8355 31.9956L10.3288 35.2539C8.76972 35.1517 7.43154 34.7556 6.31421 34.0656C5.22288 33.3756 4.32642 32.5067 3.62484 31.4589C2.94925 30.4111 2.45555 29.2611 2.14374 28.0089C1.83193 26.7311 1.67603 25.4661 1.67603 24.2139C1.67603 22.2717 1.90988 20.4828 2.3776 18.8472C2.8713 17.2117 3.59886 15.7934 4.56028 14.5922C5.54768 13.3911 6.76894 12.4584 8.22406 11.7939C9.70516 11.1039 11.4331 10.7589 13.4079 10.7589C15.3567 10.7589 17.0197 11.0656 18.3969 11.6789C19.8 12.2922 20.9433 13.1739 21.8268 14.3239C22.7103 15.4484 23.3599 16.8284 23.7756 18.4639C24.1914 20.0739 24.3993 21.8884 24.3993 23.9072C24.3993 26.2839 24.1004 28.4306 23.5028 30.3472C22.9052 32.2384 22.0996 33.8739 21.0863 35.2539C20.0989 36.6339 18.9426 37.7456 17.6174 38.5889C16.2922 39.4322 14.902 39.9817 13.4469 40.2372C14.0445 40.6717 14.6681 40.9783 15.3178 41.1572C15.9674 41.3617 16.63 41.4639 17.3055 41.4639C18.241 41.4639 19.2544 41.2978 20.3457 40.9656C20.3679 40.9588 20.3902 40.952 20.4125 40.9451L22.6342 44.2852ZM33.1251 11.1039V27.1656C33.1251 29.5422 33.6318 31.2417 34.6452 32.2639C35.6586 33.2606 37.0358 33.7589 38.7767 33.7589C40.5437 33.7589 41.8429 33.1839 42.6744 32.0339C43.5318 30.8584 43.9606 29.2356 43.9606 27.1656V11.1039H48.5988V27.5106C48.5988 28.8395 48.4169 30.0917 48.0531 31.2672C47.7153 32.4428 47.1437 33.4778 46.3381 34.3722C45.5326 35.2667 44.4673 35.9822 43.1421 36.5189C41.8169 37.03 40.1929 37.2856 38.27 37.2856C36.4251 37.2856 34.8791 37.03 33.6318 36.5189C32.4106 35.9822 31.4102 35.2667 30.6307 34.3722C29.8771 33.4778 29.3314 32.4428 28.9937 31.2672C28.6818 30.0917 28.5259 28.8395 28.5259 27.5106V11.1039H33.1251ZM53.6565 15.0954L58.2947 14.4851V37.0556H53.6565V15.0954ZM78.5313 11.1039L77.3031 14.5539H72.6688V37.0556H68.0695V14.5539H62.1287L63.362 11.1039H78.5313ZM97.9992 11.1039L96.7659 14.5539H91.8905V37.0556H87.2913V14.5539H81.3327L82.5659 11.1039H97.9992ZM102.187 11.1039H117.609L117.046 14.5539H106.825V21.7989H115.906L115.322 25.2872H106.825V33.6056H117.695L117.127 37.0556H102.187V11.1039ZM122.17 11.1039C122.352 11.1039 122.767 11.1039 123.417 11.1039C124.066 11.0784 124.794 11.0656 125.6 11.0656C126.405 11.0656 127.211 11.0656 128.016 11.0656C128.822 11.04 129.484 11.0272 130.004 11.0272C133.226 11.0272 135.578 11.6534 137.059 12.9056C138.54 14.1322 139.281 15.87 139.281 18.1189C139.281 19.6011 138.904 20.9172 138.15 22.0672C137.397 23.2172 136.163 24.0478 134.448 24.5589C135.175 24.9678 135.825 25.53 136.397 26.2456C136.968 26.9611 137.527 27.8428 138.073 28.8906C138.618 29.9128 139.177 31.1139 139.749 32.4939C140.32 33.8484 140.983 35.3689 141.736 37.0556H136.708C135.825 35.0367 135.045 33.3117 134.37 31.8806C133.72 30.4495 133.084 29.2867 132.46 28.3922C131.836 27.4978 131.161 26.8461 130.433 26.4372C129.731 26.0284 128.9 25.8239 127.938 25.8239H126.808V37.0556H122.17V11.1039ZM126.808 22.4889H129.809C131.265 22.4889 132.382 22.1695 133.162 21.5306C133.967 20.8917 134.37 19.9461 134.37 18.6939C134.37 18.1317 134.292 17.5822 134.136 17.0456C133.98 16.5089 133.707 16.0361 133.317 15.6272C132.954 15.2184 132.447 14.8989 131.797 14.6689C131.174 14.4134 130.381 14.2856 129.419 14.2856H126.808V22.4889ZM144.55 11.1039C144.732 11.1039 145.148 11.1039 145.798 11.1039C146.447 11.0784 147.175 11.0656 147.98 11.0656C148.786 11.0656 149.591 11.0656 150.397 11.0656C151.202 11.04 151.865 11.0272 152.385 11.0272C155.607 11.0272 157.958 11.6534 159.439 12.9056C160.92 14.1322 161.661 15.87 161.661 18.1189C161.661 19.6011 161.284 20.9172 160.531 22.0672C159.777 23.2172 158.543 24.0478 156.828 24.5589C157.556 24.9678 158.205 25.53 158.777 26.2456C159.348 26.9611 159.907 27.8428 160.453 28.8906C160.998 29.9128 161.557 31.1139 162.129 32.4939C162.7 33.8484 163.363 35.3689 164.117 37.0556H159.089C158.205 35.0367 157.426 33.3117 156.75 31.8806C156.1 30.4495 155.464 29.2867 154.84 28.3922C154.217 27.4978 153.541 26.8461 152.813 26.4372C152.112 26.0284 151.28 25.8239 150.319 25.8239H149.189V37.0556H144.55V11.1039ZM149.189 22.4889H152.19C153.645 22.4889 154.762 22.1695 155.542 21.5306C156.347 20.8917 156.75 19.9461 156.75 18.6939C156.75 18.1317 156.672 17.5822 156.516 17.0456C156.36 16.5089 156.087 16.0361 155.698 15.6272C155.334 15.2184 154.827 14.8989 154.178 14.6689C153.554 14.4134 152.761 14.2856 151.8 14.2856H149.189V22.4889Z" fill="black"/>
<path d="M53.6534 11.1058H58.2971V13.4266H56.165H53.6534V11.1058Z" fill="#AB0606"/>
</svg>
