<svg width="73" height="37" viewBox="0 0 73 37" fill="none" xmlns="http://www.w3.org/2000/svg">
<rect y="35" width="73" height="2" fill="url(#paint0_linear)"/>
<path d="M27.2222 25H22.9741L19.605 19.3481L16.2236 25H12L17.3711 16.2476L12 7.49512H16.2236L19.605 13.147L22.9741 7.49512H27.2222L21.8511 16.2476L27.2222 25ZM30.8477 29.9805V26.6235L32.7031 26.6479C33.0286 26.6479 33.342 26.5951 33.6431 26.4893C33.9442 26.3835 34.2209 26.237 34.4731 26.0498C34.7336 25.8626 34.9614 25.6388 35.1567 25.3784C35.3521 25.1261 35.5107 24.8494 35.6328 24.5483C35.2666 24.703 34.8923 24.8576 34.5098 25.0122C34.1354 25.1668 33.757 25.2441 33.3745 25.2441C32.5688 25.2441 31.812 25.1017 31.104 24.8169C30.396 24.5321 29.7734 24.1292 29.2363 23.6084C28.7074 23.0794 28.2882 22.4406 27.979 21.6919C27.6779 20.9351 27.5273 20.0887 27.5273 19.1528V11.9263H30.8477V19.1528C30.8477 19.6167 30.9128 20.0236 31.043 20.3735C31.1813 20.7153 31.3644 21.0042 31.5923 21.2402C31.8201 21.4681 32.0846 21.639 32.3857 21.7529C32.695 21.8669 33.0246 21.9238 33.3745 21.9238C33.7163 21.9238 34.0378 21.8465 34.3389 21.6919C34.6481 21.5291 34.9167 21.3175 35.1445 21.0571C35.3724 20.7967 35.5514 20.5037 35.6816 20.1782C35.8118 19.8446 35.877 19.5028 35.877 19.1528V11.9263H39.2339V23.3521C39.2257 24.2716 39.0467 25.1343 38.6968 25.9399C38.3468 26.7456 37.8667 27.4495 37.2563 28.0518C36.6541 28.654 35.9502 29.13 35.1445 29.48C34.3389 29.8299 33.4762 30.0049 32.5566 30.0049L30.8477 29.9805ZM45.1421 25H41.7852V6.72607H45.1421V25ZM60.3276 18.3472C60.3276 19.3237 60.1527 20.2352 59.8027 21.0815C59.4528 21.9198 58.9767 22.6481 58.3745 23.2666C57.7723 23.877 57.0643 24.3612 56.2505 24.7192C55.4448 25.0692 54.5781 25.2441 53.6504 25.2441C52.7308 25.2441 51.8641 25.0692 51.0503 24.7192C50.2446 24.3612 49.5366 23.877 48.9263 23.2666C48.3241 22.6481 47.848 21.9198 47.498 21.0815C47.1481 20.2352 46.9731 19.3237 46.9731 18.3472C46.9731 17.3543 47.1481 16.4347 47.498 15.5884C47.848 14.742 48.3241 14.0137 48.9263 13.4033C49.5366 12.7848 50.2446 12.3006 51.0503 11.9507C51.8641 11.6007 52.7308 11.4258 53.6504 11.4258C54.5781 11.4258 55.4448 11.5926 56.2505 11.9263C57.0643 12.2518 57.7723 12.7197 58.3745 13.3301C58.9767 13.9323 59.4528 14.6606 59.8027 15.5151C60.1527 16.3615 60.3276 17.3055 60.3276 18.3472ZM56.9707 18.3472C56.9707 17.8101 56.8812 17.3258 56.7021 16.8945C56.5312 16.4551 56.2952 16.0807 55.9941 15.7715C55.693 15.4541 55.339 15.214 54.9321 15.0513C54.5334 14.8804 54.1061 14.7949 53.6504 14.7949C53.1947 14.7949 52.7633 14.8804 52.3564 15.0513C51.9577 15.214 51.6077 15.4541 51.3066 15.7715C51.0137 16.0807 50.7817 16.4551 50.6108 16.8945C50.4399 17.3258 50.3545 17.8101 50.3545 18.3472C50.3545 18.8517 50.4399 19.3197 50.6108 19.751C50.7817 20.1823 51.0137 20.5566 51.3066 20.874C51.6077 21.1914 51.9577 21.4437 52.3564 21.6309C52.7633 21.8099 53.1947 21.8994 53.6504 21.8994C54.1061 21.8994 54.5334 21.814 54.9321 21.6431C55.339 21.4722 55.693 21.2321 55.9941 20.9229C56.2952 20.6136 56.5312 20.2393 56.7021 19.7998C56.8812 19.3604 56.9707 18.8761 56.9707 18.3472Z" fill="url(#paint1_linear)"/>
<rect x="50" y="8" width="7" height="2" fill="url(#paint2_linear)"/>
<defs>
<linearGradient id="paint0_linear" x1="11.2094" y1="36" x2="36.5956" y2="63.9361" gradientUnits="userSpaceOnUse">
<stop stop-color="#0F2027"/>
<stop offset="0.494792" stop-color="#203A43"/>
<stop offset="1" stop-color="#2C5364"/>
</linearGradient>
<linearGradient id="paint1_linear" x1="19.5241" y1="15.5" x2="57.1139" y2="17.2914" gradientUnits="userSpaceOnUse">
<stop stop-color="#0F2027"/>
<stop offset="0.494792" stop-color="#203A43"/>
<stop offset="1" stop-color="#2C5364"/>
</linearGradient>
<linearGradient id="paint2_linear" x1="51.0749" y1="9" x2="56.3978" y2="9.56168" gradientUnits="userSpaceOnUse">
<stop stop-color="#0F2027"/>
<stop offset="0.494792" stop-color="#203A43"/>
<stop offset="1" stop-color="#2C5364"/>
</linearGradient>
</defs>
</svg>
